<svg width="43" height="193" viewBox="0 0 43 193" fill="none" xmlns="http://www.w3.org/2000/svg">
<path d="M10.52 170.614L10.688 170.926C10.912 170.846 11.056 170.902 11.12 171.094C11.424 171.798 11.696 172.542 11.936 173.326C12.144 174.046 12.312 174.742 12.44 175.414C12.568 176.086 12.664 176.734 12.728 177.358C12.776 177.726 12.832 178.326 12.896 179.158C12.944 179.494 13 180.038 13.064 180.79C13.112 181.254 13.2 181.766 13.328 182.326L13.952 182.854C14.352 183.19 14.792 183.614 15.272 184.126C15.64 184.51 16.024 184.958 16.424 185.47C16.584 185.694 16.696 185.862 16.76 185.974C16.776 186.006 16.824 186.094 16.904 186.238C16.984 186.366 17.048 186.47 17.096 186.55C17.208 186.79 17.28 187.046 17.312 187.318C17.312 187.67 17.24 187.918 17.096 188.062C16.952 188.206 16.768 188.262 16.544 188.23C16.304 188.198 16.072 188.118 15.848 187.99C15.576 187.83 15.368 187.678 15.224 187.534C15.032 187.326 14.816 187.07 14.576 186.766C14.384 186.526 14.216 186.286 14.072 186.046C13.736 185.502 13.456 184.974 13.232 184.462C12.992 183.902 12.8 183.342 12.656 182.782C12.576 182.574 12.432 182.382 12.224 182.206C11.984 182.046 11.624 181.79 11.144 181.438C10.824 181.198 10.424 180.934 9.944 180.646C9.784 180.55 9.624 180.462 9.464 180.382C9.256 180.27 9.064 180.206 8.888 180.19C8.696 180.174 8.528 180.198 8.384 180.262C8.224 180.342 8.112 180.494 8.048 180.718C7.968 180.99 7.944 181.254 7.976 181.51C7.992 181.718 8.032 181.958 8.096 182.23C8.304 183.222 8.64 184.038 9.104 184.678C9.184 184.774 9.232 184.87 9.248 184.966C9.264 185.062 9.216 185.166 9.104 185.278C9.008 185.374 8.896 185.358 8.768 185.23L8.48 184.942C8.4 184.83 8.28 184.646 8.12 184.39C7.96 184.134 7.84 183.95 7.76 183.838C7.584 183.582 7.304 183.198 6.92 182.686C6.728 182.43 6.44 182.03 6.056 181.486C6.008 181.406 5.912 181.286 5.768 181.126C5.576 180.902 5.424 180.734 5.312 180.622C5.088 180.398 4.92 180.238 4.808 180.142C4.648 179.998 4.504 179.926 4.376 179.926C4.36 180.038 4.36 180.142 4.376 180.238L4.448 180.526C4.672 181.07 4.824 181.422 4.904 181.582C5.096 181.966 5.24 182.246 5.336 182.422C6.456 184.454 7.976 186.542 9.896 188.686C10.472 189.294 10.896 189.758 11.168 190.078C11.568 190.558 12 191.038 12.464 191.518C12.496 191.55 12.544 191.614 12.608 191.71L12.752 191.926C12.8 192.006 12.824 192.086 12.824 192.166C12.824 192.262 12.792 192.342 12.728 192.406C12.616 192.518 12.464 192.542 12.272 192.478C12.096 192.414 11.944 192.342 11.816 192.262C9.064 190.598 6.608 188.342 4.448 185.494C4.112 185.078 3.776 184.606 3.44 184.078C3.136 183.598 2.8 183.118 2.432 182.638C2.304 182.462 2.232 182.31 2.216 182.182C2.2 182.038 2.224 181.934 2.288 181.87C2.352 181.806 2.448 181.798 2.576 181.846C2.688 181.894 2.816 182.022 2.96 182.23C4.096 183.894 5.2 185.358 6.272 186.622C7.344 187.886 8.48 188.998 9.68 189.958C9.968 190.182 10.184 190.342 10.328 190.438C10.616 190.63 10.832 190.782 10.976 190.894L11.264 191.11C11.248 191.078 11.184 191.006 11.072 190.894C10.144 189.902 9.456 189.15 9.008 188.638C8.24 187.758 7.576 186.934 7.016 186.166C6.568 185.526 6.088 184.83 5.576 184.078C5.08 183.358 4.624 182.55 4.208 181.654C4 181.206 3.832 180.75 3.704 180.286C3.672 180.238 3.648 180.166 3.632 180.07C3.616 180.006 3.608 179.91 3.608 179.782C3.608 179.686 3.632 179.59 3.68 179.494C3.728 179.398 3.808 179.318 3.92 179.254C4.208 179.062 4.536 179.102 4.904 179.374C5.096 179.534 5.248 179.654 5.36 179.734C5.536 179.862 5.68 180.006 5.792 180.166C5.968 180.374 6.248 180.702 6.632 181.15C6.936 181.502 7.192 181.854 7.4 182.206L7.4 182.182C7.384 182.006 7.36 181.726 7.328 181.342C7.296 181.054 7.32 180.75 7.4 180.43C7.48 179.998 7.664 179.694 7.952 179.518C8.128 179.39 8.304 179.326 8.48 179.326C8.672 179.326 8.864 179.35 9.056 179.398C9.248 179.446 9.44 179.518 9.632 179.614C9.76 179.678 9.936 179.774 10.16 179.902C10.544 180.126 10.888 180.35 11.192 180.574C11.416 180.734 11.768 180.958 12.248 181.246L12.392 181.366C12.344 181.11 12.288 180.71 12.224 180.166C12.192 179.894 12.144 179.47 12.08 178.894C12.048 178.51 11.984 177.918 11.888 177.118C11.808 176.526 11.712 175.902 11.6 175.246C11.504 174.686 11.344 174.014 11.12 173.23C10.928 172.542 10.664 171.822 10.328 171.07C10.296 170.99 10.304 170.902 10.352 170.806C10.4 170.694 10.456 170.63 10.52 170.614ZM16.448 186.646L16.52 186.718C15.88 185.63 14.936 184.582 13.688 183.574L13.976 184.222L14.48 185.23L14.984 186.238C15.128 186.478 15.336 186.75 15.608 187.054C15.848 187.31 16.128 187.526 16.448 187.702C16.624 187.766 16.72 187.766 16.736 187.702C16.768 187.622 16.768 187.51 16.736 187.366C16.72 187.222 16.672 187.078 16.592 186.934L16.448 186.646ZM10.496 138.351L10.496 138.591C10.576 138.543 10.664 138.543 10.76 138.591C10.872 138.639 10.936 138.695 10.952 138.759C10.968 138.775 11.048 138.967 11.192 139.335C11.352 139.735 11.52 140.199 11.696 140.727C11.904 141.335 12.096 141.991 12.272 142.695C12.448 143.351 12.6 144.135 12.728 145.047C12.808 145.463 12.856 145.855 12.872 146.223C12.888 146.479 12.896 146.847 12.896 147.327C12.896 149.839 12.2 151.719 10.808 152.967C11.4 153.127 11.888 153.447 12.272 153.927C12.672 154.439 13 154.943 13.256 155.439C13.352 155.663 13.456 155.975 13.568 156.375C13.664 156.711 13.616 157.023 13.424 157.311C13.264 157.551 13.032 157.655 12.728 157.623C12.456 157.607 12.2 157.543 11.96 157.431C11.32 157.143 10.76 156.735 10.28 156.207C9.912 155.807 9.456 155.287 8.912 154.647C8.912 155.447 8.92 156.095 8.936 156.591C8.952 157.087 8.96 157.863 8.96 158.919L8.96 161.439C8.96 162.031 8.944 162.871 8.912 163.959C8.896 164.679 8.872 165.455 8.84 166.287C8.808 167.023 8.76 167.671 8.696 168.231C9.128 167.959 9.592 167.775 10.088 167.679C10.616 167.583 11.104 167.663 11.552 167.919C12.112 168.271 12.544 168.727 12.848 169.287C13.2 169.895 13.48 170.447 13.688 170.943C13.752 171.135 13.8 171.287 13.832 171.399C13.88 171.575 13.904 171.743 13.904 171.903C13.904 172.063 13.88 172.215 13.832 172.359C13.8 172.471 13.712 172.599 13.568 172.743C13.328 172.855 13.08 172.879 12.824 172.815C12.568 172.751 12.328 172.655 12.104 172.527C11.432 172.143 10.808 171.687 10.232 171.159C9.608 170.599 9.064 170.047 8.6 169.503C8.536 169.471 8.44 169.447 8.312 169.431C8.184 169.415 8.088 169.391 8.024 169.359C8.072 168.863 8.128 168.119 8.192 167.127C8.224 166.551 8.256 165.671 8.288 164.487C8.304 163.671 8.328 162.719 8.36 161.631C8.376 160.975 8.384 160.015 8.384 158.751C8.384 158.095 8.368 157.207 8.336 156.087C8.304 155.207 8.28 154.447 8.264 153.807C8.328 153.647 8.384 153.527 8.432 153.447C8.448 153.431 8.592 153.335 8.864 153.159C9.136 152.983 9.456 152.863 9.824 152.799C10.672 152.255 11.28 151.519 11.648 150.591C12 149.695 12.2 148.727 12.248 147.687C12.296 146.663 12.224 145.623 12.032 144.567C11.84 143.527 11.624 142.583 11.384 141.735C11.16 140.967 10.928 140.271 10.688 139.647C10.48 139.103 10.36 138.815 10.328 138.783C10.248 138.559 10.304 138.415 10.496 138.351ZM11.624 168.879L11.696 168.927C11.52 168.751 11.312 168.623 11.072 168.543C10.848 168.463 10.616 168.439 10.376 168.471C10.168 168.487 9.928 168.551 9.656 168.663C9.4 168.759 9.192 168.879 9.032 169.023C9.736 169.743 10.384 170.383 10.976 170.943C11.632 171.551 12.408 172.015 13.304 172.335C13.24 171.711 13.056 171.087 12.752 170.463C12.464 169.871 12.088 169.343 11.624 168.879ZM11.168 153.879L11.24 153.903C11.016 153.759 10.8 153.687 10.592 153.687C10.4 153.687 10.184 153.727 9.944 153.807C9.848 153.839 9.784 153.863 9.752 153.879C9.72 153.895 9.656 153.919 9.56 153.951C9.544 153.951 9.52 153.959 9.488 153.975C9.456 153.991 9.432 153.999 9.416 153.999L9.392 153.999C9.744 154.415 10.008 154.735 10.184 154.959C10.424 155.263 10.704 155.575 11.024 155.895C11.296 156.167 11.608 156.415 11.96 156.639C12.296 156.847 12.672 156.991 13.088 157.071C13.024 156.463 12.816 155.863 12.464 155.271C12.128 154.711 11.696 154.247 11.168 153.879ZM10.544 121.605L10.832 121.533C11.04 121.453 11.184 121.525 11.264 121.749L11.432 122.229C11.464 122.325 11.536 122.509 11.648 122.781C11.744 123.053 11.824 123.277 11.888 123.453C11.936 123.581 12.136 124.133 12.488 125.109C12.632 125.509 12.848 126.093 13.136 126.861L13.712 128.397C13.888 128.861 14.008 129.197 14.072 129.405C14.776 131.181 15.328 132.669 15.728 133.869C16.144 135.085 16.352 136.005 16.352 136.629C16.352 136.869 16.288 137.133 16.16 137.421C16.048 137.693 15.832 137.885 15.512 137.997C15.208 138.109 14.856 138.117 14.456 138.021C14.12 137.941 13.784 137.829 13.448 137.685C13.544 138.021 13.68 138.333 13.856 138.621C14 138.861 14.184 139.101 14.408 139.341C14.584 139.533 14.776 139.709 14.984 139.869C15.176 140.013 15.328 140.141 15.44 140.253C15.52 140.381 15.536 140.477 15.488 140.541C15.44 140.621 15.352 140.645 15.224 140.613C13.96 140.357 12.712 139.933 11.48 139.341C10.312 138.781 9.184 138.069 8.096 137.205C7.088 136.405 6.12 135.453 5.192 134.349C4.28 133.261 3.496 132.133 2.84 130.965C2.68 130.613 2.56 130.341 2.48 130.149C2.352 129.845 2.256 129.549 2.192 129.261C2.112 128.941 2.088 128.637 2.12 128.349C2.152 128.045 2.232 127.757 2.36 127.485C2.424 127.309 2.52 127.189 2.648 127.125C2.776 127.061 2.92 127.013 3.08 126.981C3.24 126.949 3.408 126.949 3.584 126.981C3.744 126.997 3.888 127.061 4.016 127.173C4.496 127.493 4.896 127.877 5.216 128.325C5.664 128.933 5.992 129.389 6.2 129.693C7.128 131.085 7.968 132.485 8.72 133.893C9.424 135.221 10.256 136.621 11.216 138.093C11.376 138.381 11.68 138.621 12.128 138.813C12.416 138.941 12.864 139.133 13.472 139.389C12.704 138.605 12.064 137.765 11.552 136.869C10.992 135.909 10.544 134.965 10.208 134.037C10.16 133.925 10.088 133.741 9.992 133.485C9.928 133.293 9.88 133.101 9.848 132.909C9.832 132.733 9.848 132.541 9.896 132.333C9.944 132.125 10.048 131.957 10.208 131.829C10.528 131.701 10.808 131.749 11.048 131.973C11.288 132.181 11.488 132.405 11.648 132.645C12 133.269 12.272 133.941 12.464 134.661C12.592 135.125 12.768 135.821 12.992 136.749C13.04 136.781 13.112 136.821 13.208 136.869C13.304 136.917 13.376 136.957 13.424 136.989C13.568 137.069 13.744 137.149 13.952 137.229C14.144 137.309 14.336 137.357 14.528 137.373C14.704 137.389 14.856 137.373 14.984 137.325C15.16 137.245 15.28 137.117 15.344 136.941C15.408 136.733 15.392 136.373 15.296 135.861C15.216 135.413 15.056 134.837 14.816 134.133C14.64 133.605 14.384 132.893 14.048 131.997C13.856 131.485 13.552 130.701 13.136 129.645C13.056 129.437 12.912 129.053 12.704 128.493C12.496 127.933 12.28 127.357 12.056 126.765C11.992 126.573 11.72 125.829 11.24 124.533L10.808 123.309C10.712 123.037 10.552 122.613 10.328 122.037C10.264 121.813 10.336 121.669 10.544 121.605ZM10.808 132.333C10.856 132.733 10.944 133.149 11.072 133.581C11.216 134.045 11.368 134.445 11.528 134.781C11.784 135.293 11.984 135.677 12.128 135.933C12.272 136.189 12.472 136.573 12.728 137.085C12.664 136.813 12.568 136.389 12.44 135.813C12.344 135.365 12.224 134.941 12.08 134.541C11.92 134.109 11.752 133.709 11.576 133.341C11.4 132.989 11.144 132.653 10.808 132.333ZM3.584 130.365L3.56 130.341C4.344 131.861 5.328 133.261 6.512 134.541C7.664 135.789 8.984 136.877 10.472 137.805C9.752 136.621 9.008 135.333 8.24 133.941C7.52 132.645 6.752 131.373 5.936 130.125L5.432 129.333C5.24 129.045 5.048 128.789 4.856 128.565C4.616 128.309 4.392 128.093 4.184 127.917C3.928 127.709 3.664 127.549 3.392 127.437C3.2 127.661 3.08 127.885 3.032 128.109C2.984 128.349 2.984 128.597 3.032 128.853C3.08 129.141 3.16 129.405 3.272 129.645C3.32 129.741 3.376 129.869 3.44 130.029C3.504 130.189 3.552 130.301 3.584 130.365ZM7.328 119.439C7.328 119.439 7.328 119.447 7.328 119.463C7.36 119.303 7.432 119.199 7.544 119.151C7.656 119.103 7.776 119.103 7.904 119.151C8.016 119.199 8.096 119.287 8.144 119.415C8.192 119.527 8.168 119.647 8.072 119.775C7.992 119.855 7.92 119.895 7.856 119.895C7.776 119.895 7.704 119.871 7.64 119.823C7.544 119.759 7.48 119.703 7.448 119.655C7.384 119.575 7.344 119.511 7.328 119.463C7.328 119.479 7.328 119.495 7.328 119.511L7.328 119.439ZM10.544 111.687C10.624 111.655 10.712 111.663 10.808 111.711C10.904 111.759 10.968 111.823 11 111.903C11 111.919 11.072 112.135 11.216 112.551C11.504 113.367 11.664 113.823 11.696 113.919L12.368 115.887C12.624 116.767 12.76 117.231 12.776 117.279C12.92 117.807 13.064 118.359 13.208 118.935C13.352 119.527 13.472 120.087 13.568 120.615C13.664 121.159 13.712 121.647 13.712 122.079C13.712 122.287 13.704 122.447 13.688 122.559C13.672 122.703 13.632 122.863 13.568 123.039C13.52 123.167 13.432 123.287 13.304 123.399C13.176 123.511 13.024 123.575 12.848 123.591C12.544 123.607 12.2 123.511 11.816 123.303C11.448 123.095 11.08 122.831 10.712 122.511C10.344 122.191 10.024 121.895 9.752 121.623C9.432 121.303 9.24 121.103 9.176 121.023C9.112 120.959 9.08 120.879 9.08 120.783C9.08 120.703 9.12 120.623 9.2 120.543C9.264 120.479 9.352 120.447 9.464 120.447C9.544 120.447 9.624 120.487 9.704 120.567C10.008 120.871 10.272 121.127 10.496 121.335C10.832 121.639 11.168 121.927 11.504 122.199C11.808 122.439 12.12 122.639 12.44 122.799C12.728 122.943 12.92 122.943 13.016 122.799C13.144 122.591 13.184 122.207 13.136 121.647C13.088 121.023 12.984 120.367 12.824 119.679C12.632 118.847 12.432 118.071 12.224 117.351C11.984 116.535 11.744 115.791 11.504 115.119L11.408 114.807C11.328 114.583 11.232 114.319 11.12 114.015C10.96 113.599 10.84 113.279 10.76 113.055C10.728 112.959 10.696 112.855 10.664 112.743C10.616 112.631 10.576 112.527 10.544 112.431C10.512 112.335 10.48 112.247 10.448 112.167C10.416 112.055 10.424 111.967 10.472 111.903C10.52 111.823 10.592 111.775 10.688 111.759L10.544 111.687ZM10.544 96.6149L10.856 96.6629C11.08 96.5829 11.224 96.6549 11.288 96.8789C11.288 96.9109 11.36 97.1269 11.504 97.5269C11.792 98.3429 11.976 98.8709 12.056 99.1109C12.456 100.311 12.704 101.047 12.8 101.319C13.12 102.231 13.408 103.079 13.664 103.863C13.696 103.943 13.824 104.375 14.048 105.159C14.128 105.399 14.232 105.775 14.36 106.287C14.392 106.415 14.44 106.599 14.504 106.839C14.552 107.063 14.584 107.215 14.6 107.295C14.632 107.519 14.664 107.855 14.696 108.303C14.712 108.655 14.6 108.967 14.36 109.239C14.2 109.399 14.008 109.455 13.784 109.407C13.608 109.375 13.416 109.311 13.208 109.215C12.712 108.959 12.24 108.631 11.792 108.231L10.496 107.079C10.864 108.919 11.488 110.663 12.368 112.311C12.416 112.391 12.464 112.487 12.512 112.599C12.56 112.711 12.568 112.815 12.536 112.911C12.52 112.991 12.472 113.071 12.392 113.151C12.328 113.215 12.224 113.239 12.08 113.223C11.328 112.855 10.664 112.383 10.088 111.807C9.576 111.295 9.024 110.703 8.432 110.031C8.304 109.887 8.264 109.743 8.312 109.599C8.36 109.439 8.48 109.351 8.672 109.335C8.976 109.639 9.416 110.095 9.992 110.703C10.456 111.183 10.92 111.615 11.384 111.999C10.968 111.135 10.608 110.287 10.304 109.455C10 108.591 9.784 107.703 9.656 106.791C9.624 106.647 9.632 106.535 9.68 106.455C9.728 106.359 9.8 106.287 9.896 106.239C9.992 106.191 10.096 106.167 10.208 106.167C10.32 106.167 10.424 106.215 10.52 106.311C10.872 106.599 11.128 106.823 11.288 106.983C11.448 107.143 11.704 107.367 12.056 107.655C12.296 107.863 12.568 108.063 12.872 108.255C13.192 108.479 13.488 108.639 13.76 108.735C13.808 108.111 13.744 107.479 13.568 106.839C13.344 106.007 13.176 105.391 13.064 104.991C13 104.767 12.952 104.607 12.92 104.511C12.824 104.239 12.768 104.079 12.752 104.031C12.448 103.023 12.088 101.943 11.672 100.791C10.856 98.4869 10.416 97.2469 10.352 97.0709C10.32 96.9909 10.328 96.9029 10.376 96.8069C10.424 96.6949 10.48 96.6309 10.544 96.6149ZM10.544 82.1189L10.496 82.2149C10.576 82.1829 10.656 82.1909 10.736 82.2389C10.832 82.2869 10.888 82.3429 10.904 82.4069C10.936 82.4389 11.008 82.6309 11.12 82.9829C11.232 83.3349 11.4 83.8149 11.624 84.4229C11.752 84.6789 11.896 85.0389 12.056 85.5029C12.232 85.9829 12.4 86.4949 12.56 87.0389C12.576 87.1189 12.76 87.7189 13.112 88.8389C13.368 89.6709 13.552 90.2869 13.664 90.6869C13.808 91.2149 13.976 91.7749 14.168 92.3669C14.328 92.8949 14.472 93.3269 14.6 93.6629L15.584 94.2869C16.368 94.7829 17.216 95.3589 18.128 96.0149C18.976 96.6229 19.752 97.2789 20.456 97.9829C21.064 98.5429 21.472 99.1029 21.68 99.6629C21.904 100.239 21.944 100.703 21.8 101.055C21.656 101.423 21.344 101.615 20.864 101.631C20.384 101.647 19.736 101.383 18.92 100.839C17.752 99.9909 16.776 98.9829 15.992 97.8149C15.192 96.6309 14.496 95.4069 13.904 94.1429C13.264 93.6469 12.64 93.2229 12.032 92.8709C11.6 92.6149 10.936 92.2309 10.04 91.7189C10.392 92.5349 10.8 93.3349 11.264 94.1189C11.68 94.8229 12.096 95.6149 12.512 96.4949C12.608 96.7349 12.664 96.8709 12.68 96.9029C12.744 97.0469 12.792 97.1909 12.824 97.3349C12.856 97.4789 12.856 97.6229 12.824 97.7669C12.808 97.8949 12.736 98.0229 12.608 98.1509C12.352 98.3429 12.072 98.3749 11.768 98.2469C11.464 98.1189 11.208 97.9749 11 97.8149C10.264 97.2229 9.656 96.4789 9.176 95.5829C8.696 94.7029 8.456 93.7669 8.456 92.7749C8.424 92.4389 8.496 92.1349 8.672 91.8629C8.784 91.6869 8.968 91.4229 9.224 91.0709L8.86399 90.7829C8.704 90.6549 8.584 90.5669 8.504 90.5189L8.35999 90.3269C8.29599 90.2309 8.29599 90.1109 8.35999 89.9669C8.43999 89.8229 8.55999 89.7829 8.71999 89.8469C8.8 89.8789 8.872 89.9269 8.93599 89.9909L8.912 89.9909C9.936 90.6629 10.704 91.1589 11.216 91.4789C12.24 92.1189 13.008 92.6069 13.52 92.9429L13.664 93.0389C13.408 92.2709 13.168 91.4629 12.944 90.6149C12.752 89.8789 12.512 89.0309 12.224 88.0709C11.984 87.3349 11.696 86.4629 11.36 85.4549C11.056 84.5429 10.72 83.5829 10.352 82.5749C10.32 82.4949 10.328 82.4069 10.376 82.3109C10.424 82.1989 10.48 82.1349 10.544 82.1189ZM10.712 94.5989L10.736 94.6229C10.416 94.0149 10.184 93.5589 10.04 93.2549C9.848 92.8389 9.60799 92.3989 9.31999 91.9349C9.09599 92.5269 9.05599 93.1029 9.2 93.6629C9.344 94.2229 9.552 94.7669 9.82399 95.2949C10.064 95.7589 10.392 96.2229 10.808 96.6869C11.176 97.1029 11.632 97.4469 12.176 97.7189C12.064 97.1749 11.856 96.6389 11.552 96.1109C11.168 95.4389 10.888 94.9349 10.712 94.5989ZM20.672 99.3029L20.552 99.3029C19.784 98.3429 18.904 97.5109 17.912 96.8069C16.856 96.0709 15.856 95.3829 14.912 94.7429C15.472 95.8629 16.12 96.9109 16.856 97.8869C17.592 98.8629 18.48 99.7029 19.52 100.407C19.856 100.631 20.168 100.775 20.456 100.839C20.744 100.903 20.96 100.903 21.104 100.839C21.248 100.759 21.296 100.599 21.248 100.359C21.2 100.103 21.008 99.7509 20.672 99.3029ZM10.52 47.6931L10.568 47.7411C10.776 47.6771 10.928 47.7491 11.024 47.9571C11.088 48.1011 11.168 48.3171 11.264 48.6051C11.824 50.0771 12.272 51.3091 12.608 52.3011C13.136 53.8371 13.536 55.0691 13.808 55.9971C14.16 57.1811 14.448 58.3251 14.672 59.4291C14.88 60.4691 14.984 61.4291 14.984 62.3091C14.984 63.3491 14.808 64.1171 14.456 64.6131L14.456 64.6371C14.344 64.7971 14.16 64.9731 13.904 65.1651C13.488 65.4371 12.952 65.4771 12.296 65.2851C11.64 65.0931 10.872 64.6931 9.99199 64.0851C9.65599 63.8771 9.31999 63.6371 8.98399 63.3651C8.61599 63.0771 8.26399 62.7651 7.92799 62.4291C7.46399 62.0291 6.99199 61.5731 6.51199 61.0611C5.93599 60.4531 5.43199 59.8931 4.99999 59.3811C4.42399 58.6931 3.99999 58.1571 3.72799 57.7731C3.35999 57.2611 3.11999 56.8771 3.00799 56.6211C2.83199 56.3651 2.68799 56.1171 2.57599 55.8771C2.46399 55.6051 2.36799 55.3411 2.28799 55.0851C2.20799 54.8131 2.19199 54.6131 2.23999 54.4851C2.28799 54.3091 2.34399 54.1971 2.40799 54.1491C2.59999 53.9411 2.91999 53.8451 3.36799 53.8611C4.15199 53.9571 4.89599 54.3091 5.59999 54.9171C5.74399 55.0611 5.76799 55.2131 5.67199 55.3731C5.57599 55.5331 5.41599 55.5651 5.19199 55.4691C5.04799 55.4051 4.84799 55.2931 4.59199 55.1331C4.39999 55.0051 4.18399 54.8851 3.94399 54.7731C3.92799 54.7731 3.89599 54.7651 3.84799 54.7491C3.79999 54.7171 3.75999 54.6931 3.72799 54.6771C3.66399 54.6451 3.56799 54.6131 3.43999 54.5811C3.31199 54.5491 3.21599 54.5331 3.15199 54.5331C3.05599 54.5331 2.98399 54.5571 2.93599 54.6051C2.93599 54.8771 3.00799 55.1811 3.15199 55.5171C3.43999 56.0611 3.79999 56.6211 4.23199 57.1971C4.64799 57.7411 5.10399 58.3171 5.59999 58.9251C6.22399 59.6611 6.94399 60.4371 7.75999 61.2531C8.52799 62.0211 9.34399 62.7171 10.208 63.3411L10.208 63.3651C10.944 63.8931 11.616 64.2851 12.224 64.5411C12.784 64.7811 13.224 64.7891 13.544 64.5651C13.64 64.5171 13.712 64.4531 13.76 64.3731C13.824 64.2771 13.88 64.2051 13.928 64.1571L13.928 64.1811C14.184 63.7811 14.312 63.1891 14.312 62.4051C14.312 61.6851 14.224 60.8211 14.048 59.8131C13.872 58.8531 13.632 57.8451 13.328 56.7891C12.96 55.5251 12.64 54.4931 12.368 53.6931C12.08 52.8131 11.752 51.8851 11.384 50.9091C11.064 50.0771 10.8 49.3811 10.592 48.8211L10.448 48.4611C10.368 48.2691 10.328 48.1651 10.328 48.1491C10.296 48.0691 10.304 47.9811 10.352 47.8851C10.4 47.7731 10.456 47.7091 10.52 47.6931ZM10.544 33.3014L10.496 33.3494C10.512 33.3334 10.56 33.3254 10.64 33.3254C10.768 33.3574 10.856 33.4294 10.904 33.5414C10.904 33.5894 10.96 33.7574 11.072 34.0454C11.184 34.3654 11.328 34.7734 11.504 35.2694C11.648 35.6694 11.84 36.1974 12.08 36.8534C12.272 37.3654 12.496 38.0374 12.752 38.8694C12.944 39.4774 13.12 40.1494 13.28 40.8854C13.424 41.5414 13.496 42.0934 13.496 42.5414C13.496 42.7974 13.456 43.0214 13.376 43.2134C13.248 43.4694 13.056 43.6054 12.8 43.6214C12.608 43.6374 12.384 43.5894 12.128 43.4774C11.84 43.3494 11.576 43.1974 11.336 43.0214L10.808 42.5894C10.712 42.5094 10.568 42.3734 10.376 42.1814L10.016 41.8214C10.256 42.7654 10.56 43.7814 10.928 44.8694C11.232 45.7814 11.528 46.7734 11.816 47.8454C11.864 47.9574 11.888 48.0854 11.888 48.2294C11.888 48.3734 11.864 48.5014 11.816 48.6134C11.768 48.7254 11.696 48.8214 11.6 48.9014C11.504 48.9654 11.384 48.9734 11.24 48.9254C10.824 48.7334 10.464 48.4534 10.16 48.0854L9.29599 47.0054C9.00799 46.5894 8.79199 46.2694 8.64799 46.0454C8.43999 45.7254 8.26399 45.3814 8.11999 45.0134C7.97599 44.6454 7.87999 44.2774 7.83199 43.9094C7.78399 43.5254 7.80799 43.1414 7.90399 42.7574C7.96799 42.4534 8.12799 42.1894 8.38399 41.9654C8.62399 41.7414 8.91199 41.6454 9.24799 41.6774L9.24799 41.3414C9.24799 41.2614 9.25599 41.1894 9.27199 41.1254C9.30399 40.9974 9.32799 40.9094 9.34399 40.8614C9.35999 40.7974 9.39999 40.7334 9.46399 40.6694C9.51199 40.6214 9.57599 40.6134 9.65599 40.6454C9.97599 40.8854 10.168 41.0374 10.232 41.1014C10.456 41.2934 10.6 41.4214 10.664 41.4854C10.744 41.5654 10.864 41.6694 11.024 41.7974C11.104 41.8614 11.224 41.9734 11.384 42.1334C11.72 42.3894 11.992 42.5814 12.2 42.7094C12.424 42.8534 12.608 42.9094 12.752 42.8774C12.768 42.8774 12.792 42.8614 12.824 42.8294C12.92 42.6534 12.92 42.2774 12.824 41.7014C12.744 41.1894 12.584 40.5174 12.344 39.6854C12.152 38.9974 11.896 38.1894 11.576 37.2614C11.368 36.6374 11.088 35.8694 10.736 34.9574C10.72 34.7974 10.672 34.6454 10.592 34.5014L10.448 34.1174L10.304 33.7574C10.272 33.6774 10.28 33.5894 10.328 33.4934C10.376 33.3814 10.448 33.3174 10.544 33.3014ZM9.46399 42.3974L9.43999 42.4934C9.15199 42.3974 8.93599 42.4134 8.79199 42.5414C8.64799 42.6694 8.55199 42.8374 8.50399 43.0454C8.45599 43.2854 8.43999 43.5254 8.45599 43.7654C8.48799 44.0374 8.53599 44.2534 8.59999 44.4134C8.85599 45.1334 9.21599 45.8054 9.67999 46.4294C10.144 47.0534 10.648 47.6294 11.192 48.1574C10.984 47.2294 10.704 46.2694 10.352 45.2774C10.048 44.4294 9.75199 43.4694 9.46399 42.3974ZM10.52 19.7982L10.544 19.7502C10.624 19.7182 10.704 19.7262 10.784 19.7742C10.864 19.8222 10.92 19.8942 10.952 19.9902C10.968 20.0062 11.096 20.3662 11.336 21.0702C11.384 21.2142 11.512 21.5902 11.72 22.1982C11.928 22.7902 12.104 23.2862 12.248 23.6862C12.584 24.6942 12.792 25.3262 12.872 25.5822C13.112 26.3502 13.352 27.1422 13.592 27.9582C13.928 29.1582 14.176 30.1742 14.336 31.0062C14.464 31.7102 14.544 32.2942 14.576 32.7582C14.608 33.2702 14.552 33.6142 14.408 33.7902C14.264 33.9822 14.08 34.0782 13.856 34.0782C13.632 34.0782 13.376 34.0062 13.088 33.8622C12.896 33.7662 12.624 33.6062 12.272 33.3822C12.192 33.3342 12.08 33.2622 11.936 33.1662C11.776 33.0702 11.664 32.9982 11.6 32.9502C11.408 32.8382 11.28 32.7902 11.216 32.8062C11.088 32.8542 11 32.9262 10.952 33.0222C10.888 33.1502 10.84 33.2542 10.808 33.3342C10.776 33.4142 10.712 33.5342 10.616 33.6942C10.552 33.8062 10.432 33.8862 10.256 33.9342L10.232 33.9342C9.89599 33.9342 9.58399 33.8382 9.29599 33.6462C8.99199 33.4542 8.71999 33.2542 8.47999 33.0462C8.23999 32.8062 8.03199 32.5662 7.85599 32.3262C7.66399 32.0542 7.59199 31.7662 7.63999 31.4622C7.71999 31.2382 7.86399 31.1022 8.07199 31.0542C8.29599 31.0062 8.48799 31.0142 8.64799 31.0782C9.03199 31.2222 9.36799 31.4382 9.65599 31.7262C9.92799 31.9982 10.2 32.2942 10.472 32.6142C10.6 32.3902 10.76 32.2302 10.952 32.1342C11.224 31.9902 11.488 31.9982 11.744 32.1582C12.016 32.3182 12.256 32.4862 12.464 32.6622C12.672 32.8382 12.912 33.0062 13.184 33.1662C13.456 33.3262 13.672 33.3742 13.832 33.3102C13.96 33.1822 13.976 32.7982 13.88 32.1582C13.784 31.5182 13.616 30.7022 13.376 29.7102C13.168 28.8622 12.864 27.7822 12.464 26.4702C12.096 25.3022 11.712 24.1502 11.312 23.0142L11.336 23.0142L10.832 21.6462L10.328 20.2782C10.296 20.1662 10.304 20.0702 10.352 19.9902C10.4 19.8782 10.456 19.8142 10.52 19.7982ZM10.136 33.1422C9.92799 32.8382 9.67199 32.5342 9.36799 32.2302C9.07999 31.9422 8.74399 31.7262 8.35999 31.5822C8.58399 31.9342 8.84799 32.2462 9.15199 32.5182C9.45599 32.7742 9.78399 32.9822 10.136 33.1422ZM10.544 0.84906L10.784 0.84906C10.992 0.785061 11.136 0.857061 11.216 1.06506C11.52 1.94506 11.92 3.00106 12.416 4.23306C12.704 4.95306 13.152 6.03306 13.76 7.47306C14.384 8.92906 14.92 10.2331 15.368 11.3851C15.768 12.4251 15.968 13.2651 15.968 13.9051C15.968 14.1611 15.928 14.3851 15.848 14.5771C15.704 14.9291 15.432 15.1531 15.032 15.2491C14.2 15.4891 12.808 15.0891 10.856 14.0491L10.352 13.7611L9.84799 13.4731C10.04 13.9531 10.344 14.6571 10.76 15.5851C10.888 15.8731 11.08 16.2811 11.336 16.8091C11.576 17.3211 11.712 17.6171 11.744 17.6971C12.048 18.3691 12.312 18.9691 12.536 19.4971C12.76 20.0411 12.872 20.4251 12.872 20.6491C12.84 20.8411 12.784 20.9771 12.704 21.0571C12.592 21.1691 12.472 21.2331 12.344 21.2491C12.2 21.2811 12.056 21.2811 11.912 21.2491C11.752 21.2171 11.616 21.1691 11.504 21.1051C10.608 20.5451 9.87199 19.8011 9.29599 18.8731C8.70399 17.9291 8.39999 16.9211 8.38399 15.8491C8.38399 15.5131 8.44799 15.1531 8.57599 14.7691C8.68799 14.4171 8.87999 14.1051 9.15199 13.8331C9.07199 13.7211 8.96799 13.5371 8.83999 13.2811C8.74399 13.1051 8.59999 12.9531 8.40799 12.8251C6.93599 11.7851 5.56799 10.6971 4.30399 9.56106C3.00799 8.39306 1.85599 7.07306 0.847991 5.60106C0.687991 5.37706 0.567991 5.20106 0.487991 5.07306C0.359991 4.88106 0.263991 4.68906 0.19999 4.49706C0.13599 4.30506 0.0879904 4.09706 0.0559908 3.87306C0.0239912 3.64906 0.0479914 3.43306 0.127991 3.22506C0.351991 2.90506 0.655991 2.74506 1.03999 2.74506C1.42399 2.74506 1.75999 2.84106 2.04799 3.03306C2.76799 3.48106 3.42399 4.03306 4.01599 4.68906C4.63999 5.39306 5.18399 6.06506 5.64799 6.70506C6.30399 7.56906 6.90399 8.49706 7.44799 9.48906C7.79999 10.1291 8.34399 11.0891 9.07999 12.3691C9.22399 12.4651 9.71999 12.7611 10.568 13.2571C11.032 13.5291 11.56 13.8011 12.152 14.0731C12.648 14.2971 13.136 14.4731 13.616 14.6011C14.064 14.7131 14.432 14.7371 14.72 14.6731C14.912 14.6251 15.04 14.5211 15.104 14.3611C15.2 14.1531 15.2 13.8171 15.104 13.3531C15.024 12.9531 14.864 12.4251 14.624 11.7691C14.464 11.3211 14.208 10.6731 13.856 9.82506C13.664 9.36106 13.36 8.66506 12.944 7.73706C12.336 6.32906 11.888 5.27306 11.6 4.56906C11.12 3.40106 10.696 2.30506 10.328 1.28106C10.264 1.05706 10.336 0.913061 10.544 0.84906ZM10.736 16.9531L10.688 16.9291C10.48 16.5451 10.288 16.1211 10.112 15.6571C9.95199 15.2411 9.71999 14.8331 9.41599 14.4331C9.09599 15.1371 9.02399 15.8571 9.19999 16.5931C9.37599 17.3611 9.64799 18.0331 10.016 18.6091C10.256 18.9451 10.584 19.3371 11 19.7851C11.352 20.1531 11.784 20.4251 12.296 20.6011C12.152 19.9611 11.92 19.3371 11.6 18.7291C11.312 18.1851 11.024 17.5931 10.736 16.9531ZM1.25599 4.80906L1.27999 4.80906C2.15999 6.16906 3.17599 7.39306 4.32799 8.48106C5.51199 9.58506 6.73599 10.6171 7.99999 11.5771C7.32799 10.2811 6.62399 9.08106 5.88799 7.97706C5.10399 6.79306 4.23199 5.71306 3.27199 4.73706C3.15999 4.62506 2.97599 4.45706 2.71999 4.23306C2.46399 4.00906 2.27199 3.84906 2.14399 3.75306C1.98399 3.62506 1.77599 3.52106 1.51999 3.44106C1.31199 3.37706 1.07199 3.35306 0.799991 3.36906C0.799991 3.92906 0.951991 4.40906 1.25599 4.80906ZM34.544 137.786L34.784 137.882C34.992 137.818 35.136 137.89 35.216 138.098L35.6 139.154C35.664 139.33 35.76 139.578 35.888 139.898C35.984 140.138 36.032 140.266 36.032 140.282L36.008 140.282C36.36 141.338 36.608 142.33 36.752 143.258C36.896 144.154 36.968 144.93 36.968 145.586C36.968 146.178 36.936 146.658 36.872 147.026C36.808 147.41 36.736 147.754 36.656 148.058L36.776 148.226C36.984 148.61 37.296 149.202 37.712 150.002C38.016 150.594 38.184 151.242 38.216 151.946C38.248 152.138 38.216 152.314 38.12 152.474C37.992 152.698 37.904 152.866 37.856 152.978C38.512 153.57 39.216 154.106 39.968 154.586C40.464 154.906 41.208 155.37 42.2 155.978C42.264 156.042 42.32 156.09 42.368 156.122L42.584 156.266C42.664 156.314 42.712 156.37 42.728 156.434C42.76 156.514 42.76 156.586 42.728 156.65C42.632 156.778 42.52 156.842 42.392 156.842C42.264 156.842 42.144 156.818 42.032 156.77C41.952 156.738 41.832 156.674 41.672 156.578C41.512 156.482 41.4 156.418 41.336 156.386C39.752 155.346 38.192 154.29 36.656 153.218C35.168 152.178 33.68 151.01 32.192 149.714C31.968 149.49 31.736 149.282 31.496 149.09C31.256 148.898 31.024 148.69 30.8 148.466C30.72 148.354 30.68 148.258 30.68 148.178C30.68 148.05 30.688 147.962 30.704 147.914C30.736 147.834 30.784 147.794 30.848 147.794C30.944 147.794 31.032 147.826 31.112 147.89C31.8 148.45 32.416 148.978 32.96 149.474C33.488 149.97 34.128 150.482 34.88 151.01C34.688 150.754 34.456 150.394 34.184 149.93C33.832 149.322 33.552 148.786 33.344 148.322C33.088 147.746 32.896 147.178 32.768 146.618C32.64 146.058 32.664 145.61 32.84 145.274C32.888 145.21 32.96 145.162 33.056 145.13C33.184 145.098 33.288 145.082 33.368 145.082C33.448 145.082 33.568 145.098 33.728 145.13C34.176 145.354 34.56 145.65 34.88 146.018C35.2 146.386 35.544 146.802 35.912 147.266C35.992 146.898 36.04 146.482 36.056 146.018C36.088 145.538 36.064 144.986 35.984 144.362C35.904 143.738 35.784 143.042 35.624 142.274C35.464 141.506 35.224 140.666 34.904 139.754C34.904 139.722 34.88 139.634 34.832 139.49C34.816 139.474 34.752 139.322 34.64 139.034C34.544 138.81 34.48 138.642 34.448 138.53C34.416 138.418 34.376 138.314 34.328 138.218C34.264 137.994 34.336 137.85 34.544 137.786ZM33.56 145.802C33.64 146.73 33.872 147.634 34.256 148.514C34.64 149.426 35.152 150.242 35.792 150.962C35.776 150.498 35.776 150.042 35.792 149.594C35.824 148.986 35.856 148.53 35.888 148.226C35.664 147.922 35.312 147.466 34.832 146.858C34.48 146.41 34.056 146.058 33.56 145.802ZM37.544 152.378L37.592 152.45C37.64 151.858 37.552 151.29 37.328 150.746C37.12 150.234 36.864 149.714 36.56 149.186C36.528 149.57 36.512 149.874 36.512 150.098C36.512 150.418 36.536 150.722 36.584 151.01C36.632 151.298 36.728 151.562 36.872 151.802C37.016 152.042 37.24 152.234 37.544 152.378ZM34.52 121.235L34.856 121.355C34.936 121.323 35.016 121.331 35.096 121.379C35.176 121.427 35.232 121.499 35.264 121.595L35.408 121.979C35.536 122.331 35.656 122.675 35.768 123.011L36.272 124.523C36.336 124.715 36.432 125.019 36.56 125.435C36.688 125.835 36.792 126.147 36.872 126.371C36.952 126.627 37.072 127.027 37.232 127.571C37.264 127.683 37.368 128.067 37.544 128.723C37.576 128.819 37.624 128.979 37.688 129.203C37.736 129.411 37.776 129.571 37.808 129.683L37.952 130.259C38.144 131.059 38.296 131.803 38.408 132.491C38.504 133.067 38.552 133.523 38.552 133.859C38.552 134.195 38.52 134.427 38.456 134.555C38.376 134.715 38.296 134.827 38.216 134.891C38.168 134.907 38.096 134.931 38 134.963C37.888 134.995 37.72 134.963 37.496 134.867C37.24 134.771 36.92 134.595 36.536 134.339C36.088 134.051 35.544 133.643 34.904 133.115C35.192 134.091 35.552 135.051 35.984 135.995C36.432 136.971 36.784 137.931 37.04 138.875L37.136 139.523C37.184 139.747 37.096 139.923 36.872 140.051C36.696 140.147 36.52 140.131 36.344 140.003C36.184 139.875 36.04 139.755 35.912 139.643C35.352 139.131 34.856 138.651 34.424 138.203C33.96 137.723 33.528 137.179 33.128 136.571C33.064 136.507 33.016 136.419 32.984 136.307C32.952 136.211 32.952 136.123 32.984 136.043C33.016 135.963 33.064 135.915 33.128 135.899C33.208 135.867 33.304 135.875 33.416 135.923C33.848 136.531 34.304 137.107 34.784 137.651C35.216 138.147 35.736 138.659 36.344 139.187C36.2 138.627 36.032 138.107 35.84 137.627C35.712 137.291 35.504 136.787 35.216 136.115C35.072 135.779 34.872 135.275 34.616 134.603C34.408 134.059 34.248 133.539 34.136 133.043C34.072 132.851 34.048 132.635 34.064 132.395C34.08 132.155 34.224 132.035 34.496 132.035C34.576 132.035 34.672 132.083 34.784 132.179C34.896 132.275 34.952 132.331 34.952 132.347L35.744 132.995C36.016 133.219 36.28 133.411 36.536 133.571C36.616 133.619 36.736 133.691 36.896 133.787C37.04 133.883 37.144 133.955 37.208 134.003C37.4 134.131 37.544 134.203 37.64 134.219C37.72 134.043 37.72 133.691 37.64 133.163C37.592 132.763 37.48 132.139 37.304 131.291C37.192 130.747 37.008 129.971 36.752 128.963C36.544 128.131 36.304 127.315 36.032 126.515L35.84 125.987C35.728 125.651 35.584 125.243 35.408 124.763C35.36 124.619 35.272 124.379 35.144 124.043C35.016 123.691 34.92 123.411 34.856 123.203C34.568 122.387 34.392 121.891 34.328 121.715C34.296 121.603 34.304 121.507 34.352 121.427C34.4 121.315 34.456 121.251 34.52 121.235ZM34.52 107.736L34.544 107.688C34.624 107.656 34.704 107.664 34.784 107.712C34.864 107.76 34.92 107.832 34.952 107.928C34.968 107.944 35.096 108.304 35.336 109.008C35.384 109.152 35.512 109.528 35.72 110.136C35.928 110.728 36.104 111.224 36.248 111.624C36.584 112.632 36.792 113.264 36.872 113.52C37.112 114.288 37.352 115.08 37.592 115.896C37.928 117.096 38.176 118.112 38.336 118.944C38.464 119.648 38.544 120.232 38.576 120.696C38.608 121.208 38.552 121.552 38.408 121.728C38.264 121.92 38.08 122.016 37.856 122.016C37.632 122.016 37.376 121.944 37.088 121.8C36.896 121.704 36.624 121.544 36.272 121.32C36.192 121.272 36.08 121.2 35.936 121.104C35.776 121.008 35.664 120.936 35.6 120.888C35.408 120.776 35.28 120.728 35.216 120.744C35.088 120.792 35 120.864 34.952 120.96C34.888 121.088 34.84 121.192 34.808 121.272C34.776 121.352 34.712 121.472 34.616 121.632C34.552 121.744 34.432 121.824 34.256 121.872L34.232 121.872C33.896 121.872 33.584 121.776 33.296 121.584C32.992 121.392 32.72 121.192 32.48 120.984C32.24 120.744 32.032 120.504 31.856 120.264C31.664 119.992 31.592 119.704 31.64 119.4C31.72 119.176 31.864 119.04 32.072 118.992C32.296 118.944 32.488 118.952 32.648 119.016C33.032 119.16 33.368 119.376 33.656 119.664C33.928 119.936 34.2 120.232 34.472 120.552C34.6 120.328 34.76 120.168 34.952 120.072C35.224 119.928 35.488 119.936 35.744 120.096C36.016 120.256 36.256 120.424 36.464 120.6C36.672 120.776 36.912 120.944 37.184 121.104C37.456 121.264 37.672 121.312 37.832 121.248C37.96 121.12 37.976 120.736 37.88 120.096C37.784 119.456 37.616 118.64 37.376 117.648C37.168 116.8 36.864 115.72 36.464 114.408C36.096 113.24 35.712 112.088 35.312 110.952L35.336 110.952L34.832 109.584L34.328 108.216C34.296 108.104 34.304 108.008 34.352 107.928C34.4 107.816 34.456 107.752 34.52 107.736ZM34.136 121.08C33.928 120.776 33.672 120.472 33.368 120.168C33.08 119.88 32.744 119.664 32.36 119.52C32.584 119.872 32.848 120.184 33.152 120.456C33.456 120.712 33.784 120.92 34.136 121.08ZM34.544 96.8026L34.64 96.8746C34.72 96.8426 34.8 96.8506 34.88 96.8986C34.976 96.9466 35.032 97.0026 35.048 97.0666L35.168 97.4026C35.184 97.4346 35.296 97.7546 35.504 98.3626C35.552 98.4906 35.72 98.9546 36.008 99.7546C36.072 99.9306 36.176 100.211 36.32 100.595C36.448 100.979 36.544 101.267 36.608 101.459C36.768 101.971 36.88 102.355 36.944 102.611C37.072 103.139 37.152 103.475 37.184 103.619C37.28 103.971 37.352 104.283 37.4 104.555C37.496 105.019 37.568 105.467 37.616 105.899C37.648 106.155 37.68 106.539 37.712 107.051C37.728 107.451 37.704 107.835 37.64 108.203C37.576 108.571 37.432 108.883 37.208 109.139C37.048 109.299 36.832 109.395 36.56 109.427C36.288 109.459 36.048 109.411 35.84 109.283C35.232 109.011 34.712 108.635 34.28 108.155C33.832 107.659 33.408 107.163 33.008 106.667C32.688 106.235 32.376 105.739 32.072 105.179C31.784 104.667 31.656 104.099 31.688 103.475C31.704 103.267 31.776 103.091 31.904 102.947C32.016 102.819 32.16 102.715 32.336 102.635C32.512 102.555 32.696 102.531 32.888 102.563C33.08 102.595 33.248 102.667 33.392 102.779C33.44 102.955 33.432 103.075 33.368 103.139C33.304 103.203 33.208 103.251 33.08 103.283C32.968 103.299 32.84 103.299 32.696 103.283C32.504 103.251 32.384 103.235 32.336 103.235C32.256 103.459 32.232 103.675 32.264 103.883C32.28 104.091 32.328 104.291 32.408 104.483C32.456 104.611 32.544 104.803 32.672 105.059C32.768 105.267 32.872 105.443 32.984 105.587C33.336 106.131 33.704 106.611 34.088 107.027C34.504 107.475 34.96 107.883 35.456 108.251C35.76 108.475 35.992 108.587 36.152 108.587C36.328 108.587 36.464 108.539 36.56 108.443C36.656 108.347 36.728 108.243 36.776 108.131L36.824 107.963C36.92 107.563 36.944 107.083 36.896 106.523C36.848 105.947 36.776 105.379 36.68 104.819C36.584 104.243 36.464 103.691 36.32 103.163C36.128 102.459 36 102.011 35.936 101.819C35.872 101.611 35.8 101.387 35.72 101.147C35.624 100.891 35.528 100.611 35.432 100.307C35.32 100.003 35.232 99.7626 35.168 99.5866C34.896 98.8186 34.608 98.0266 34.304 97.2106C34.272 97.0986 34.28 97.0106 34.328 96.9466C34.376 96.8826 34.448 96.8346 34.544 96.8026ZM34.52 82.4029L34.664 82.4749C34.776 82.4429 34.864 82.4509 34.928 82.4989C35.008 82.5469 35.056 82.6189 35.072 82.7149C35.088 82.7149 35.144 82.8429 35.24 83.0989C35.336 83.3549 35.456 83.6909 35.6 84.1069L35.696 84.3469C35.76 84.4909 35.816 84.6269 35.864 84.7549C35.992 85.0589 36.136 85.4429 36.296 85.9069C36.6 86.7549 36.784 87.2589 36.848 87.4189C37.104 88.1549 37.304 88.7149 37.448 89.0989C37.736 89.9309 37.976 90.6509 38.168 91.2589C38.36 91.8669 38.504 92.3709 38.6 92.7709C38.696 93.1709 38.768 93.5069 38.816 93.7789C38.864 94.0509 38.888 94.2669 38.888 94.4269C38.888 94.6189 38.864 94.7469 38.816 94.8109C38.784 94.8589 38.736 94.9149 38.672 94.9789C38.464 95.1549 38.224 95.2029 37.952 95.1229C37.712 95.0589 37.448 94.9229 37.16 94.7149C36.904 94.5229 36.648 94.3149 36.392 94.0909C36.152 93.8669 35.96 93.6989 35.816 93.5869C35.992 94.4029 36.24 95.1549 36.56 95.8429C37.008 96.8029 37.352 97.5229 37.592 98.0029C37.64 98.1789 37.64 98.2989 37.592 98.3629C37.544 98.4269 37.472 98.4589 37.376 98.4589C37.312 98.4589 37.2 98.4429 37.04 98.4109C36.928 98.3789 36.832 98.3549 36.752 98.3389C34.848 97.5709 33.072 96.5869 31.424 95.3869C29.792 94.2029 28.32 92.8109 27.008 91.2109C26.48 90.5229 26.032 89.8989 25.664 89.3389C25.232 88.6989 24.944 87.9869 24.8 87.2029C24.72 86.8989 24.744 86.5869 24.872 86.2669C24.984 85.9629 25.216 85.7709 25.568 85.6909C25.888 85.6109 26.192 85.6109 26.48 85.6909C26.752 85.7549 27.032 85.8669 27.32 86.0269C27.624 86.1869 27.88 86.3629 28.088 86.5549C28.168 86.6349 28.288 86.7389 28.448 86.8669C28.608 86.9949 28.72 87.0909 28.784 87.1549C29.392 87.7629 29.912 88.3469 30.344 88.9069C30.872 89.5789 31.328 90.2109 31.712 90.8029C32.144 91.4589 32.552 92.1309 32.936 92.8189C33.352 93.5709 33.744 94.2509 34.112 94.8589C34.224 95.0349 34.376 95.3149 34.568 95.6989C34.664 95.8909 34.824 96.1629 35.048 96.5149C35.208 96.7549 35.4 96.9789 35.624 97.1869C35.832 97.3789 36.112 97.5229 36.464 97.6189C36.16 96.9469 35.872 96.2749 35.6 95.6029C35.328 94.9309 35.16 94.2269 35.096 93.4909C35.064 93.3149 35.096 93.1469 35.192 92.9869C35.288 92.8269 35.432 92.7549 35.624 92.7709C35.848 92.8189 36.064 92.9389 36.272 93.1309L36.92 93.7069C37.064 93.8349 37.28 94.0109 37.568 94.2349C37.776 94.3949 37.976 94.4749 38.168 94.4749C38.2 94.2349 38.12 93.7789 37.928 93.1069C37.784 92.6109 37.528 91.7709 37.16 90.5869C36.792 89.4829 36.344 88.2349 35.816 86.8429C35.192 85.2109 34.696 83.8829 34.328 82.8589C34.296 82.7789 34.304 82.6909 34.352 82.5949C34.4 82.4829 34.456 82.4189 34.52 82.4029ZM26.264 88.9789L26.24 89.0509C27.248 90.6189 28.44 92.0269 29.816 93.2749C31.192 94.5229 32.68 95.6029 34.28 96.5149L33.128 94.4269C32.872 93.9629 32.472 93.2829 31.928 92.3869C31.48 91.6509 31.048 90.9869 30.632 90.3949C30.184 89.7549 29.704 89.1309 29.192 88.5229C28.776 88.0909 28.352 87.6669 27.92 87.2509C27.488 86.8509 26.992 86.5389 26.432 86.3149C26.384 86.2989 26.296 86.2749 26.168 86.2429C26.104 86.2269 26.008 86.2189 25.88 86.2189C25.784 86.2189 25.696 86.2429 25.616 86.2909C25.536 86.3389 25.488 86.4189 25.472 86.5309C25.408 86.9789 25.472 87.4109 25.664 87.8269C25.888 88.2909 26.088 88.6749 26.264 88.9789ZM34.544 68.0357L34.496 68.0837C34.512 68.0677 34.56 68.0597 34.64 68.0597C34.768 68.0917 34.856 68.1637 34.904 68.2757C34.904 68.3237 34.96 68.4917 35.072 68.7797C35.184 69.0997 35.328 69.5077 35.504 70.0037C35.648 70.4037 35.84 70.9317 36.08 71.5877C36.272 72.0997 36.496 72.7717 36.752 73.6037C36.944 74.2117 37.12 74.8837 37.28 75.6197C37.424 76.2757 37.496 76.8277 37.496 77.2757C37.496 77.5317 37.456 77.7557 37.376 77.9477C37.248 78.2037 37.056 78.3397 36.8 78.3557C36.608 78.3717 36.384 78.3237 36.128 78.2117C35.84 78.0837 35.576 77.9317 35.336 77.7557L34.808 77.3237C34.712 77.2437 34.568 77.1077 34.376 76.9157L34.016 76.5557C34.256 77.4997 34.56 78.5157 34.928 79.6037C35.232 80.5157 35.528 81.5077 35.816 82.5797C35.864 82.6917 35.888 82.8197 35.888 82.9637C35.888 83.1077 35.864 83.2357 35.816 83.3477C35.768 83.4597 35.696 83.5557 35.6 83.6357C35.504 83.6997 35.384 83.7077 35.24 83.6597C34.824 83.4677 34.464 83.1877 34.16 82.8197L33.296 81.7397C33.008 81.3237 32.792 81.0037 32.648 80.7797C32.44 80.4597 32.264 80.1157 32.12 79.7477C31.976 79.3797 31.88 79.0117 31.832 78.6437C31.784 78.2597 31.808 77.8757 31.904 77.4917C31.968 77.1877 32.128 76.9237 32.384 76.6997C32.624 76.4757 32.912 76.3797 33.248 76.4117L33.248 76.0757C33.248 75.9957 33.256 75.9237 33.272 75.8597C33.304 75.7317 33.328 75.6437 33.344 75.5957C33.36 75.5317 33.4 75.4677 33.464 75.4037C33.512 75.3557 33.576 75.3477 33.656 75.3797C33.976 75.6197 34.168 75.7717 34.232 75.8357C34.456 76.0277 34.6 76.1557 34.664 76.2197C34.744 76.2997 34.864 76.4037 35.024 76.5317C35.104 76.5957 35.224 76.7077 35.384 76.8677C35.72 77.1237 35.992 77.3157 36.2 77.4437C36.424 77.5877 36.608 77.6437 36.752 77.6117C36.768 77.6117 36.792 77.5957 36.824 77.5637C36.92 77.3877 36.92 77.0117 36.824 76.4357C36.744 75.9237 36.584 75.2517 36.344 74.4197C36.152 73.7317 35.896 72.9237 35.576 71.9957C35.368 71.3717 35.088 70.6037 34.736 69.6917C34.72 69.5317 34.672 69.3797 34.592 69.2357L34.448 68.8517L34.304 68.4917C34.272 68.4117 34.28 68.3237 34.328 68.2277C34.376 68.1157 34.448 68.0517 34.544 68.0357ZM33.464 77.1317L33.44 77.2277C33.152 77.1317 32.936 77.1477 32.792 77.2757C32.648 77.4037 32.552 77.5717 32.504 77.7797C32.456 78.0197 32.44 78.2597 32.456 78.4997C32.488 78.7717 32.536 78.9877 32.6 79.1477C32.856 79.8677 33.216 80.5397 33.68 81.1637C34.144 81.7877 34.648 82.3637 35.192 82.8917C34.984 81.9637 34.704 81.0037 34.352 80.0117C34.048 79.1637 33.752 78.2037 33.464 77.1317ZM34.52 54.0526L34.52 54.0286C34.744 53.9646 34.888 54.0366 34.952 54.2446C34.984 54.3086 35.064 54.5006 35.192 54.8206C35.256 54.9806 35.352 55.2366 35.48 55.5886C35.512 55.6846 35.592 55.9406 35.72 56.3566C35.8 56.6126 35.848 56.7886 35.864 56.8846C36.184 58.1166 36.4 59.3646 36.512 60.6286C36.624 61.7646 36.704 63.0366 36.752 64.4446C37.008 64.6366 37.208 64.7886 37.352 64.9006C37.592 65.0926 37.784 65.2686 37.928 65.4286C38.088 65.6046 38.232 65.8126 38.36 66.0526C38.472 66.2606 38.528 66.5006 38.528 66.7726C38.544 67.0446 38.448 67.2606 38.24 67.4206C38.016 67.5966 37.784 67.6206 37.544 67.4926C37.016 67.2526 36.632 66.8686 36.392 66.3406C36.152 65.8126 35.984 65.2686 35.888 64.7086L34.808 64.4926C34.808 64.8126 34.84 65.1006 34.904 65.3566L35.12 66.2206C35.168 66.4126 35.224 66.7006 35.288 67.0846C35.336 67.3726 35.336 67.6606 35.288 67.9486C35.224 68.2526 35.048 68.4286 34.76 68.4766C34.472 68.5246 34.216 68.4846 33.992 68.3566C33.448 68.1166 32.968 67.7966 32.552 67.3966C32.12 66.9966 31.784 66.5406 31.544 66.0286C31.432 65.8206 31.376 65.5646 31.376 65.2606C31.376 64.9726 31.488 64.7406 31.712 64.5646C31.92 64.4526 32.136 64.4526 32.36 64.5646C32.584 64.6766 32.752 64.8206 32.864 64.9966C32.848 65.2526 32.752 65.3806 32.576 65.3806C32.4 65.3806 32.232 65.3566 32.072 65.3086C32.296 65.9166 32.64 66.4446 33.104 66.8926C33.584 67.3406 34.128 67.6766 34.736 67.9006C34.752 67.5966 34.728 67.3006 34.664 67.0126L34.448 66.1486C34.4 65.9566 34.344 65.6686 34.28 65.2846C34.232 64.9806 34.24 64.6926 34.304 64.4206C34.368 64.2606 34.48 64.1406 34.64 64.0606C34.8 63.9806 34.952 63.9406 35.096 63.9406C35.256 63.9406 35.432 63.9646 35.624 64.0126C35.816 64.0606 35.984 64.1086 36.128 64.1566C36.032 63.1646 35.96 62.1646 35.912 61.1566C35.864 60.2126 35.728 59.2286 35.504 58.2046C35.392 57.6446 35.208 57.0206 34.952 56.3326C34.664 55.5646 34.456 54.9646 34.328 54.5326C34.296 54.4206 34.304 54.3246 34.352 54.2446C34.4 54.1326 34.456 54.0686 34.52 54.0526ZM38.024 66.8686L38.048 66.8686C37.936 66.5486 37.768 66.2526 37.544 65.9806C37.352 65.7406 37.096 65.5166 36.776 65.3086C36.888 65.5806 37.032 65.9006 37.208 66.2686C37.368 66.6046 37.64 66.8046 38.024 66.8686ZM34.544 42.0038L34.568 42.1958C34.648 42.1638 34.728 42.1718 34.808 42.2198C34.904 42.2678 34.96 42.3238 34.976 42.3878C35.008 42.4198 35.096 42.6358 35.24 43.0358C35.384 43.4518 35.552 43.9318 35.744 44.4758C35.872 44.8438 36.064 45.3798 36.32 46.0838C36.512 46.6118 36.656 46.9958 36.752 47.2358C36.976 48.0198 37.112 48.5078 37.16 48.6998C37.304 49.2918 37.416 49.7878 37.496 50.1878C37.544 50.4278 37.616 50.8038 37.712 51.3158C37.776 51.6518 37.808 52.0358 37.808 52.4678C37.808 52.8518 37.76 53.2358 37.664 53.6198C37.568 54.0198 37.392 54.3798 37.136 54.6998C36.944 54.9398 36.712 55.0838 36.44 55.1318C36.2 55.1798 35.912 55.1638 35.576 55.0838C35.304 55.0198 35.008 54.9078 34.688 54.7478C34.464 54.6358 34.224 54.4998 33.968 54.3398C33.456 54.0198 33.008 53.6198 32.624 53.1398C32.24 52.6598 31.952 52.1398 31.76 51.5798C31.68 51.3398 31.656 51.0758 31.688 50.7878C31.72 50.4838 31.864 50.2758 32.12 50.1638C32.36 50.0998 32.584 50.1238 32.792 50.2358C33 50.3478 33.176 50.4918 33.32 50.6678C33.736 51.1478 34.08 51.6998 34.352 52.3238C34.592 52.8518 34.816 53.4518 35.024 54.1238C35.104 54.1558 35.232 54.2038 35.408 54.2678C35.584 54.3318 35.696 54.3718 35.744 54.3878C36 54.4838 36.24 54.4438 36.464 54.2678C36.752 53.9638 36.92 53.5878 36.968 53.1398C37.016 52.6598 37.032 52.2438 37.016 51.8918C36.92 50.7878 36.712 49.6598 36.392 48.5078C36.072 47.3718 35.712 46.2758 35.312 45.2198C35.168 44.8358 35.08 44.5958 35.048 44.4998L34.76 43.6358C34.728 43.5398 34.68 43.4038 34.616 43.2278C34.552 43.0518 34.512 42.9318 34.496 42.8678C34.416 42.6278 34.368 42.4918 34.352 42.4598C34.32 42.3798 34.328 42.2918 34.376 42.1958C34.424 42.0838 34.48 42.0198 34.544 42.0038ZM32.288 50.8598C32.32 51.4678 32.512 52.0198 32.864 52.5158C33.216 53.0118 33.624 53.4438 34.088 53.8118C33.912 53.2838 33.68 52.7398 33.392 52.1798C33.136 51.6518 32.768 51.2118 32.288 50.8598Z" fill="#EDC684"/>
</svg>
