<svg width="16" height="15" viewBox="0 0 16 15" fill="none" xmlns="http://www.w3.org/2000/svg">
<path fill-rule="evenodd" clip-rule="evenodd" d="M2.04972 1.50619L0.427531 3.01107L2.09625 3.01915L3.765 3.02723L5.28091 1.51362L6.79678 0L5.23434 0.000655256L3.67188 0.00134173L2.04972 1.50619ZM9.30241 0.10481C9.35094 0.162442 10.0094 0.843162 10.7656 1.61746L12.1406 3.02533L13.8099 3.02599C14.728 3.02636 15.4719 3.0194 15.463 3.01054C15.4541 3.00168 14.6608 2.32105 13.7 1.49805L11.9531 0.00168495L10.5837 0.000842489L9.21419 0L9.30241 0.10481ZM6.8125 1.85657L5.64094 3.02667H7.96475H10.2885L9.91991 2.64444C9.06297 1.75584 8.01447 0.686743 7.99984 0.686618C7.99116 0.686524 7.45684 1.21301 6.8125 1.85657ZM0 4.35379C0 4.37482 5.7745 12.7908 5.83181 12.8533C5.88784 12.9144 5.83294 12.7454 4.34628 8.28435L3.03609 4.35279L1.51806 4.34468C0.683125 4.34025 0 4.34434 0 4.35379ZM4.44303 4.38147C4.49725 4.61917 7.98819 15.0285 8.00409 14.9999C8.04094 14.9339 11.4375 4.43064 11.4375 4.38275C11.4375 4.34309 10.9849 4.33719 7.93522 4.33719C4.92684 4.33719 4.43434 4.34343 4.44303 4.38147ZM11.4596 8.64858C10.6914 11.0198 10.0677 12.9647 10.0735 12.9705C10.0849 12.982 16 4.38234 16 4.35423C16 4.34487 15.2927 4.33719 14.4282 4.33719H12.8563L11.4596 8.64858Z" fill="#EDC684"/>
</svg>
