<svg width="16" height="14" viewBox="0 0 16 14" fill="none" xmlns="http://www.w3.org/2000/svg">
<path d="M14.7692 0H1.23079C0.90437 0 0.591319 0.122916 0.360506 0.341709C0.129692 0.560501 2.22879e-05 0.857247 2.22879e-05 1.16667V12.8333C-0.001397 13.0558 0.0649965 13.2739 0.191222 13.4615C0.317448 13.6491 0.498133 13.7981 0.71156 13.8906C0.874197 13.9624 1.05139 13.9997 1.23079 14C1.51972 13.9993 1.79906 13.9017 2.01925 13.7244C2.02292 13.7221 2.02628 13.7194 2.02925 13.7164L4.50002 11.6667H14.7692C15.0957 11.6667 15.4087 11.5437 15.6395 11.325C15.8703 11.1062 16 10.8094 16 10.5V1.16667C16 0.857247 15.8703 0.560501 15.6395 0.341709C15.4087 0.122916 15.0957 0 14.7692 0ZM14.7692 10.5H4.50002C4.21019 10.4999 3.92961 10.5967 3.70771 10.7734L3.69848 10.7815L1.23079 12.8333V1.16667H14.7692V10.5Z" fill="#EDC684"/>
</svg>
