<svg width="16" height="16" viewBox="0 0 16 16" fill="none" xmlns="http://www.w3.org/2000/svg">
<path d="M15 4.88889V11.1111C15 12.1425 14.5903 13.1317 13.861 13.861C13.1317 14.5903 12.1425 15 11.1111 15H4.88889C3.85749 15 2.86834 14.5903 2.13903 13.861C1.40972 13.1317 1 12.1425 1 11.1111V4.88889C1 3.85749 1.40972 2.86834 2.13903 2.13903C2.86834 1.40972 3.85749 1 4.88889 1H11.1111C12.1425 1 13.1317 1.40972 13.861 2.13903C14.5903 2.86834 15 3.85749 15 4.88889Z" stroke="#EDC684" stroke-linecap="round" stroke-linejoin="round"/>
<path d="M7.22206 15.0003V8.00027C7.22206 6.29849 7.61095 4.88916 10.3332 4.88916M5.6665 8.77805H10.3332" stroke="#EDC684" stroke-linecap="round" stroke-linejoin="round"/>
</svg>
